<svg xmlns="http://www.w3.org/2000/svg" version="1.1" viewBox="0 0 40 32" width="40" height="32" stroke="black" stroke-width="0.4"><g transform="translate(30 5.5) rotate(15)"><rect fill="#e45144" x="-8" y="0" width="16" height="25" rx="3" /><circle fill="#ffc61a" cx="0" cy="8" r="5.5" /><circle fill="black" stroke="none" cx="-2" cy="6.5" r="0.5" /><circle fill="black" stroke="none" cx="2" cy="6.5" r="0.5" /><path d="M-2 10a2.5 2.5 0 0 1 4 0" fill="none" stroke="black" stroke-linecap="round" /></g><g transform="translate(20 4)"><rect fill="#ffc61a" x="-8" y="0" width="16" height="25" rx="3" /><circle fill="#ffc61a" cx="0" cy="8" r="5.5" /><circle fill="black" stroke="none" cx="-2" cy="6.5" r="0.5" /><circle fill="black" stroke="none" cx="2" cy="6.5" r="0.5" /><path d="M-2 9.75l4 0" fill="none" stroke="black" stroke-linecap="round" /></g><g transform="translate(8 1.5) rotate(-10)"><rect fill="#53c6b6" x="-8" y="0" width="16" height="25" rx="3" /><circle fill="#ffc61a" cx="0" cy="8" r="5.5" /><circle fill="black" stroke="none" cx="-2" cy="6.5" r="0.5" /><circle fill="black" stroke="none" cx="2" cy="6.5" r="0.5" /><path d="M-2 9.5a2.5 2.5 0 0 0 4 0" fill="none" stroke="black" stroke-linecap="round" /></g></svg>
