<svg xmlns="http://www.w3.org/2000/svg" version="1.1" viewBox="0 0 40 32" width="40" height="32" fill="none" stroke-width="0.5"><rect fill="#ffffff66" stroke="black" x="4.25" y="4.25" width="31.5" height="23.5" /><rect stroke="#ffffff80" x="4.75" y="4.75" width="30.5" height="22.5" /><path stroke="#00000011" d="M8 4.5v23m8-23v23m8-23v23m8-23v23M4.5 8h31m-31 8h31m-31 8h31" /><path stroke="black" stroke-width="2.5" d="M4.5 17H10Q12 17 13 20Q14 23 16 23H24Q26 23 27 20L29.5 12Q30.5 9 32.5 9h1" /><circle fill="black" cx="33.5" cy="9" r="1.25" /><g stroke="#ffc61a" stroke-width="2"><path stroke="#e45144" stroke-linecap="round" d="M13 20Q14 23 16 23H24Q26 23 27 20" /><path stroke="#53c6b6" stroke-linecap="round" d="M29.5 12Q30.5 9 32.5 9h1" /><path d="M4.5 17H10Q12 17 13 20" /><path d="M27 20L29.5 12" /></g></svg>
