<svg xmlns="http://www.w3.org/2000/svg" version="1.1" viewBox="-1 -1 14 14" width="14" height="14" fill="currentColor"><path d="M11.1 .9C10.6 .4 9.9 0 9.3 0S8.2 .4 8.2 .4L1.9 6.7S0 10.5 0 11C0 11.3 .1 11.5 .3 11.7S.7 12 1 12C1.5 12 5.3 10.1 5.3 10.1L11.6 3.8S12 3.3 12 2.7S11.6 1.4 11.1 .9ZM10.4 1.6C11.4 2.6 10.9 3.1 10.9 3.1L5.4 8.6S5.1 7.9 4.6 7.4S3.4 6.6 3.4 6.6L8.9 1.1S9.4 .6 10.4 1.6ZM3.9 8.1C4.9 9.1 4.5 9.5 4.5 9.5L2.3 10.6S2.3 10.3 2 10S1.4 9.7 1.4 9.7L2.5 7.5S2.9 7.1 3.9 8.1ZM9.7 1.6L9.5 1.5L4.4 6.6L4.6 6.7ZM10.5 2.5L10.4 2.3L5.3 7.4L5.4 7.6Z" /></svg>
