<svg xmlns="http://www.w3.org/2000/svg" version="1.1" viewBox="-1 -1 14 14" width="14" height="14" fill="currentColor"><path transform="translate(12 0) scale(-1 1)" fill-rule="evenodd" d="M.9 .9C1.4 .4,2.1 0,2.7 0S3.8 .4,3.8 .4L10.1 6.7S12 10.5,12 11C12 11.3,11.9 11.5,11.7 11.7S11.3 12,11 12C10.5 12,6.7 10.1,6.7 10.1L.4 3.8S0 3.3,0 2.7S.4 1.4,.9 .9ZM1.6 1.6C2.6 .6,3.1 1.1,3.1 1.1L8.6 6.6S7.9 6.9,7.4 7.4S6.6 8.6,6.6 8.6L1.1 3.1S.6 2.6,1.6 1.6ZM8.1 8.1C9.1 7.1,9.5 7.5,9.5 7.5L10.6 9.7S10.3 9.7,10 10S9.7 10.6,9.7 10.6L7.5 9.5S7.1 9.1,8.1 8.1ZM2.3 1.6L2.5 1.5L7.6 6.6L7.4 6.7ZM1.6 2.3L1.5 2.5L6.6 7.6L6.7 7.4Z"></path></svg>
